# xmcd
#
# Track frame offsets: 
#        150
#        19332
#        36887
#        53510
#        84670
#        98277
#        124765
#        135972
#        150381
#        166706
#        186286
#        200981
#        219446
#        238578
#
# Disc length: 3421 seconds
#
# Revision: 0
# Processed by: cddbd v1.5.2PL0 Copyright (c) Steve Scherf et al.
# Submitted via: ExactAudioCopy v0.99pb5
#
DISCID=ad0d5b0e
DTITLE=Vargas Blues Band - Bluestrology
DYEAR=2010
DGENRE=Blues
TTITLE0=Backdoor Man
TTITLE1=Troubled Mind
TTITLE2=Wild West Blues
TTITLE3=Barstool Blues
TTITLE4=Blues Magic
TTITLE5=Bluestrology
TTITLE6=Bound For Memphis
TTITLE7=Promised Land
TTITLE8=A Little Bit Closer
TTITLE9=You´ve Got To Move
TTITLE10=Free Spirits
TTITLE11=Traveling South
TTITLE12=New York City Blues
TTITLE13=Make Sweet Love 2 You
EXTD=
EXTT0=
EXTT1=
EXTT2=
EXTT3=
EXTT4=
EXTT5=
EXTT6=
EXTT7=
EXTT8=
EXTT9=
EXTT10=
EXTT11=
EXTT12=
EXTT13=
PLAYORDER=
